#define _width 48
#define _height 48
static char _bits[] = {
  0x00, 0x00, 0x00, 0x00, 0x00, 0x00, 0x00, 0x00, 0x00, 0x00, 0x00, 0x00, 
  0x00, 0x00, 0x00, 0x00, 0x00, 0x00, 0x00, 0x00, 0x00, 0x00, 0x00, 0x00, 
  0x00, 0x00, 0x00, 0x00, 0x00, 0x00, 0x00, 0x00, 0x00, 0x00, 0x00, 0x00, 
  0x00, 0x00, 0xFC, 0x1F, 0x00, 0x00, 0x00, 0xE0, 0x27, 0xD4, 0x00, 0x00, 
  0x00, 0xBC, 0x01, 0xC0, 0x01, 0x00, 0x00, 0x0F, 0x00, 0x00, 0x03, 0x00, 
  0x80, 0x01, 0x40, 0x02, 0x04, 0x00, 0xE0, 0x00, 0xFC, 0x1F, 0x0E, 0x00, 
  0x30, 0xC0, 0xFF, 0xFF, 0x0F, 0x00, 0x30, 0xF0, 0xFF, 0xFF, 0x0B, 0x00, 
  0x38, 0xFC, 0xFF, 0xFF, 0x9E, 0x00, 0x30, 0xFC, 0xFE, 0x3F, 0x97, 0x03, 
  0xF0, 0xFF, 0xFF, 0x02, 0x0E, 0x02, 0xB0, 0xDF, 0x4B, 0x00, 0x06, 0x0E, 
  0x30, 0x00, 0x00, 0x00, 0x76, 0x08, 0x60, 0x00, 0x00, 0x00, 0x86, 0x00, 
  0x30, 0x00, 0x00, 0x00, 0x06, 0x11, 0x60, 0x00, 0x00, 0x00, 0x86, 0x10, 
  0x60, 0x00, 0x00, 0x00, 0x86, 0x08, 0x60, 0x00, 0x00, 0x00, 0xE6, 0x0C, 
  0x60, 0x00, 0x00, 0x00, 0x1F, 0x06, 0x60, 0x10, 0x00, 0x00, 0x04, 0x03, 
  0x60, 0x00, 0x00, 0x00, 0xA3, 0x00, 0x60, 0x00, 0x00, 0x00, 0x5E, 0x00, 
  0x60, 0x00, 0x00, 0x00, 0x06, 0x00, 0xC0, 0x00, 0x00, 0x00, 0x03, 0x00, 
  0x60, 0x00, 0x00, 0x00, 0x06, 0x00, 0xC0, 0x00, 0x60, 0x00, 0x04, 0x00, 
  0x60, 0x00, 0x24, 0x00, 0x06, 0x00, 0xC0, 0x00, 0x68, 0x00, 0x07, 0x00, 
  0xC0, 0x00, 0x38, 0x00, 0x04, 0x00, 0xC0, 0x01, 0x20, 0x00, 0x06, 0x00, 
  0xC0, 0x01, 0x00, 0x00, 0x06, 0x00, 0x80, 0x01, 0x00, 0x00, 0x07, 0x00, 
  0x00, 0x01, 0x00, 0x80, 0x07, 0x00, 0x00, 0x06, 0x00, 0xC0, 0x01, 0x00, 
  0x00, 0x1E, 0x00, 0x7C, 0x00, 0x00, 0x00, 0xB8, 0xEB, 0x3F, 0x00, 0x00, 
  0x00, 0xE0, 0xFF, 0x01, 0x00, 0x00, 0x00, 0x00, 0x00, 0x00, 0x00, 0x00, 
  0x00, 0x00, 0x00, 0x00, 0x00, 0x00, 0x00, 0x00, 0x00, 0x00, 0x00, 0x00, 
  0x00, 0x00, 0x00, 0x00, 0x00, 0x00, 0x00, 0x00, 0x00, 0x00, 0x00, 0x00, 
  };
